<?xml version="1.0" standalone="no"?>
<!DOCTYPE svg PUBLIC "-//W3C//DTD SVG 20010904//EN"
 "http://www.w3.org/TR/2001/REC-SVG-20010904/DTD/svg10.dtd">
<svg version="1.0" xmlns="http://www.w3.org/2000/svg"
 width="39.000000pt" height="39.000000pt" viewBox="0 0 39.000000 39.000000"
 preserveAspectRatio="xMidYMid meet">
<metadata>
Created by potrace 1.16, written by Peter Selinger 2001-2019
</metadata>
<g transform="translate(0.000000,39.000000) scale(0.012150,-0.012381)"
fill="#000000" stroke="none">
<path d="M1510 3124 c0 -21 -85 -332 -93 -341 -4 -3 -127 219 -149 269 -34 75
-42 46 -53 -174 l-10 -205 -43 52 c-24 28 -53 62 -65 76 -62 67 -125 146 -130
162 -7 19 -37 24 -37 6 0 -7 5 -39 10 -73 15 -85 39 -261 36 -263 -4 -5 -236
189 -236 198 0 5 -10 9 -21 9 -25 0 -26 8 26 -140 20 -58 47 -137 60 -177 l23
-72 -67 36 c-36 19 -109 58 -161 86 -52 27 -104 56 -115 63 -58 41 -46 4 49
-147 46 -74 83 -135 82 -136 -3 -3 -273 112 -298 127 -54 31 -49 -3 10 -81 27
-35 84 -111 126 -168 l78 -104 -49 7 c-59 9 -185 32 -275 52 -37 8 -72 14 -77
14 -24 0 -9 -27 33 -60 24 -19 84 -71 134 -115 l91 -80 -72 -6 c-40 -4 -120
-7 -179 -8 -90 -1 -108 -4 -108 -16 0 -9 8 -19 18 -22 9 -4 80 -40 157 -81 77
-41 154 -82 171 -92 l32 -16 -187 -52 c-102 -29 -194 -52 -203 -52 -11 0 -18
-7 -18 -19 0 -14 10 -20 43 -25 23 -4 100 -23 171 -44 l128 -36 -153 -76
c-149 -73 -172 -87 -164 -100 2 -4 71 -10 152 -14 81 -3 176 -9 210 -13 l62
-6 -132 -110 c-73 -60 -147 -119 -164 -131 -39 -25 -46 -62 -10 -52 53 16 347
59 354 52 4 -4 -11 -23 -139 -183 -89 -111 -109 -143 -92 -143 12 0 380 143
392 153 7 5 -1 -17 -17 -49 -16 -33 -52 -111 -81 -174 -29 -63 -56 -117 -60
-120 -4 -3 -10 -15 -14 -27 -6 -19 -4 -23 14 -23 11 0 23 6 26 14 3 8 60 47
127 87 67 40 132 79 144 86 l22 15 -25 -84 c-13 -46 -32 -108 -40 -138 -9 -30
-25 -83 -36 -117 -29 -92 -22 -108 27 -56 46 48 276 245 281 241 2 -3 -3 -69
-30 -370 -5 -48 -3 -58 9 -58 9 0 19 9 23 19 4 11 48 73 97 139 106 140 101
142 111 -60 5 -85 11 -128 18 -128 7 0 54 83 106 184 l95 184 12 -41 c21 -68
64 -227 82 -299 12 -52 20 -68 33 -68 11 0 18 7 18 18 -1 22 83 322 90 322 6
0 136 -229 172 -302 27 -55 61 -67 56 -20 -1 15 1 109 6 209 l8 182 26 -32
c15 -18 70 -81 123 -142 53 -60 101 -120 108 -132 6 -13 19 -23 28 -23 13 0
14 7 9 38 -19 109 -47 307 -44 319 2 11 7 11 23 -4 11 -10 71 -58 133 -106 61
-49 112 -93 112 -98 0 -5 9 -9 21 -9 16 0 19 4 14 18 -9 20 -112 313 -125 355
-10 30 -4 33 25 14 11 -8 88 -49 170 -92 83 -43 160 -85 173 -93 12 -8 26 -12
30 -8 7 8 10 4 -115 202 -53 84 -85 143 -75 139 9 -3 53 -18 97 -32 44 -14
117 -38 163 -54 93 -32 102 -34 102 -18 0 6 -63 82 -140 169 -132 150 -138
158 -107 154 18 -2 102 -11 187 -19 85 -8 170 -18 188 -21 26 -4 33 -2 30 9
-1 8 -79 71 -171 140 l-168 125 211 7 c162 6 210 10 210 20 0 7 -42 35 -92 61
-51 26 -132 69 -181 95 -48 27 -93 49 -100 50 -19 1 335 98 360 99 35 0 53 11
53 31 0 14 -7 19 -27 19 -16 0 -89 18 -163 40 -74 22 -156 45 -182 51 -27 6
-48 14 -48 17 0 8 303 185 333 195 9 4 17 13 17 21 0 11 -15 13 -67 12 -38 0
-132 0 -210 2 l-142 2 147 136 c81 75 152 144 159 152 18 22 6 33 -25 20 -15
-5 -91 -23 -170 -39 -79 -16 -147 -31 -153 -34 -5 -4 36 50 91 119 55 68 104
127 110 131 15 9 13 48 -2 42 -49 -20 -206 -83 -268 -107 -41 -15 -83 -31 -92
-35 -13 -5 -8 13 22 74 22 45 40 84 40 86 0 2 20 46 45 96 25 51 45 98 45 105
0 20 -19 17 -44 -6 -21 -20 -319 -209 -323 -205 -4 3 54 396 62 423 6 18 3 22
-14 22 -11 0 -21 -4 -21 -10 0 -9 -91 -120 -193 -234 -24 -27 -44 -43 -44 -35
-11 333 -16 399 -34 399 -11 0 -19 -7 -19 -15 0 -9 -33 -74 -73 -145 l-74
-129 -12 162 c-7 89 -13 173 -14 187 -2 29 -30 34 -35 6 -3 -14 -166 -333
-176 -343 -4 -4 -106 352 -106 370 0 10 -8 17 -20 17 -15 0 -20 -7 -20 -26z
m102 -462 c-37 -61 -57 -65 -66 -15 -8 51 -8 248 1 298 7 39 8 35 51 -98 l44
-137 -30 -48z m243 246 c4 -35 25 -294 25 -320 0 -12 -108 -10 -115 2 -11 18
60 360 75 360 5 0 11 -19 15 -42z m-491 -93 c54 -91 126 -227 126 -239 0 -3
-26 -6 -59 -6 -55 0 -59 2 -69 28 -13 34 -58 232 -66 292 -7 52 -8 53 68 -75z
m702 -113 l7 -113 -44 -45 c-24 -25 -52 -50 -63 -56 -17 -9 -18 -7 -11 34 9
60 52 242 72 308 l17 55 8 -35 c4 -19 10 -86 14 -148z m-901 -18 c39 -44 45
-57 45 -95 0 -24 -5 -62 -11 -83 l-11 -40 -33 59 c-34 60 -118 250 -130 295
-7 26 30 -10 140 -136z m1137 24 c-5 -69 -32 -250 -43 -290 l-10 -38 -59 0
c-38 0 -60 4 -60 11 0 32 154 359 169 359 3 0 5 -19 3 -42z m-1301 -129 c70
-54 143 -114 164 -134 l39 -36 60 25 c118 46 203 59 374 54 144 -4 165 -7 252
-37 123 -42 245 -109 313 -171 30 -28 59 -50 64 -50 4 0 45 44 90 98 45 53
112 126 148 162 78 75 78 71 6 -90 l-46 -105 -93 -34 c-50 -19 -92 -39 -92
-44 0 -5 17 -28 38 -51 21 -22 45 -52 54 -65 19 -28 4 -36 183 97 135 100 193
138 201 130 4 -5 -90 -130 -178 -235 -66 -80 -69 -82 -104 -76 -35 6 -36 5
-29 -18 4 -13 15 -42 24 -64 10 -22 26 -70 37 -107 10 -38 23 -68 29 -68 5 0
80 18 165 40 152 39 250 58 250 47 0 -7 -154 -102 -251 -155 -50 -28 -88 -42
-112 -42 -34 0 -37 -3 -37 -27 -1 -16 -3 -66 -6 -113 -3 -47 -6 -100 -7 -118
l-2 -34 55 -4 c58 -4 315 -55 390 -78 43 -13 40 -13 -105 -20 -83 -4 -199 -6
-260 -5 l-110 2 -45 -89 c-25 -49 -60 -111 -78 -138 -17 -28 -32 -54 -32 -58
0 -4 22 -8 48 -8 43 0 62 -8 153 -66 274 -174 264 -180 -103 -63 -87 28 -161
55 -164 61 -4 5 -24 -7 -48 -30 -114 -109 -312 -205 -476 -231 -77 -13 -249
-14 -305 -2 -22 5 -65 14 -95 20 -115 23 -308 135 -424 244 -21 20 -42 37 -45
36 -3 0 -36 -37 -74 -82 -85 -104 -216 -241 -223 -235 -6 6 22 77 72 187 l35
78 82 28 c45 15 86 31 91 36 5 4 -11 34 -35 67 -24 33 -49 67 -54 77 -10 16
-22 9 -115 -62 -144 -109 -259 -188 -265 -181 -10 9 204 284 237 304 7 4 31 7
55 5 24 -1 43 -1 43 1 0 3 -11 36 -24 75 -13 39 -30 103 -37 142 -10 55 -17
71 -30 71 -10 0 -75 -11 -146 -25 -166 -33 -286 -46 -272 -29 6 7 80 48 166
91 124 62 163 77 196 76 54 -1 67 10 67 61 0 22 6 68 13 101 19 90 16 95 -53
95 -57 0 -235 33 -375 68 l-70 18 70 7 c39 4 156 7 262 7 165 0 193 -2 201
-16 7 -12 12 -6 26 29 9 25 39 82 67 127 27 45 49 84 49 88 0 4 -25 5 -55 4
-52 -4 -59 -1 -113 39 -107 80 -232 182 -232 191 0 17 97 -18 343 -124 l117
-50 48 44 c26 24 84 70 130 102 45 32 82 60 82 63 0 2 -32 3 -72 2 -68 -2 -72
-1 -95 27 -31 38 -156 222 -173 254 l-13 24 29 -18 c16 -11 86 -63 155 -117z
m-249 -115 c48 -24 94 -54 102 -66 16 -25 48 -140 41 -147 -7 -6 -243 211
-290 267 l-18 22 39 -16 c21 -9 78 -36 126 -60z m2103 -356 c-15 -18 -63 -65
-106 -105 l-78 -72 -88 6 c-49 3 -89 7 -91 8 -8 7 361 192 386 195 2 0 -8 -15
-23 -32z m-2395 -3 c52 -8 98 -15 103 -15 9 0 97 -119 97 -132 0 -5 -10 -6
-22 -3 -35 11 -280 131 -303 149 -20 15 -20 15 5 16 14 0 68 -7 120 -15z m199
-845 c24 0 32 -3 25 -10 -15 -15 -296 -137 -357 -155 l-50 -15 19 22 c10 11
59 55 108 96 l90 75 65 -7 c36 -3 82 -6 100 -6z m1944 -131 c93 -31 239 -90
262 -106 17 -13 3 -14 -115 -8 l-135 6 -43 47 c-82 88 -77 97 31 61z m-181
-403 c126 -113 186 -176 167 -176 -8 0 -71 28 -139 63 -133 67 -133 66 -155
165 -12 54 24 40 127 -52z m-1439 -26 c-47 -87 -170 -275 -190 -292 -15 -12
-16 -9 -10 28 9 55 84 303 96 318 5 6 38 11 75 11 l65 0 -36 -65z m1199 -63
c84 -106 187 -267 170 -267 -23 0 -362 272 -362 291 0 5 37 9 83 9 81 0 82 0
109 -33z m-1007 -70 c-23 -69 -113 -296 -126 -316 -11 -17 -4 264 7 293 3 9
34 37 68 62 70 53 78 47 51 -39z m170 -12 c-7 -51 -49 -262 -61 -302 -3 -13
-10 -23 -14 -23 -10 0 -30 186 -30 288 l0 87 56 0 55 0 -6 -50z m671 -35 c47
-93 127 -281 121 -287 -3 -2 -50 46 -106 108 -90 100 -101 116 -101 149 0 120
34 132 86 30z m-448 -169 c-3 -172 -3 -175 -19 -141 -10 19 -31 85 -49 147
l-31 111 25 41 c34 53 58 67 69 39 4 -12 6 -100 5 -197z m202 150 c25 -47 85
-341 70 -341 -8 0 -164 271 -185 323 l-15 37 60 0 c49 0 61 -4 70 -19z"/>
<path d="M1438 2455 c-190 -36 -363 -130 -499 -272 -235 -243 -315 -585 -212
-903 131 -406 532 -670 957 -630 122 12 197 32 304 81 244 112 436 337 507
594 26 93 31 303 10 406 -70 347 -336 626 -678 710 -109 27 -288 33 -389 14z
m387 -175 c325 -103 536 -385 537 -720 0 -129 -19 -217 -72 -327 -251 -518
-973 -583 -1306 -117 -97 136 -138 265 -138 439 -1 144 15 210 81 345 39 80
61 109 137 186 77 76 106 98 187 139 141 70 215 86 374 81 99 -3 147 -9 200
-26z"/>
<path d="M1445 2269 c-113 -26 -255 -100 -315 -164 l-25 -27 429 4 c256 2 413
0 391 -6 -52 -12 -108 -70 -136 -141 -18 -47 -24 -81 -24 -155 -3 -164 -2
-160 -29 -160 -24 0 -36 -16 -36 -51 0 -22 -1 -22 -51 -7 -41 12 -49 25 -24
34 23 9 18 50 -10 72 -14 11 -25 27 -25 35 0 8 -7 20 -16 28 -10 8 -13 21 -9
36 4 16 1 25 -10 29 -8 4 -15 17 -15 30 0 25 -37 84 -52 84 -4 0 -8 -11 -8
-24 0 -14 -5 -28 -11 -31 -6 -4 -8 -14 -5 -22 4 -8 -4 -23 -16 -33 -17 -14
-20 -22 -12 -30 14 -14 -15 -75 -46 -97 -25 -17 -26 -58 -3 -72 10 -5 16 -12
13 -14 -3 -3 -72 -23 -155 -45 -164 -44 -181 -43 -169 10 4 21 1 33 -9 41 -9
7 -18 23 -20 37 -4 24 -4 24 -6 -2 -1 -21 -6 -28 -21 -28 -11 0 -20 7 -20 15
0 8 -3 15 -8 15 -16 0 -37 -47 -37 -87 -1 -23 -7 -53 -14 -67 -13 -23 -11 -28
27 -73 104 -123 197 -189 310 -219 37 -9 75 -26 85 -36 12 -12 26 -17 37 -13
15 5 21 0 25 -18 9 -33 3 -72 -11 -72 -6 0 -18 -8 -28 -18 -10 -9 -21 -15 -26
-12 -5 3 -11 1 -15 -5 -3 -5 -17 -10 -30 -10 -12 0 -25 -6 -28 -13 -4 -10 -19
-12 -61 -7 -31 3 -56 4 -56 1 0 -4 30 -25 68 -49 138 -87 332 -122 502 -88 88
17 251 88 282 123 16 17 9 18 -174 16 -209 -3 -243 4 -276 55 l-16 25 -7 -24
-7 -24 -7 23 c-4 12 -11 22 -16 22 -5 0 -9 14 -9 31 0 16 4 28 9 25 5 -4 18 6
29 21 l20 28 -5 -29 -6 -29 26 19 c15 10 27 22 27 27 0 4 26 7 58 7 174 1 346
104 461 277 71 105 95 189 95 323 0 90 -3 112 -23 155 -46 95 -99 149 -165
166 -24 7 -20 8 19 4 l50 -4 -45 39 c-62 55 -184 117 -276 140 -84 22 -264 26
-339 9z m603 -304 c16 -13 39 -48 52 -77 28 -66 25 -180 -8 -244 -27 -53 -88
-107 -146 -129 -39 -15 -54 -16 -103 -6 -31 6 -58 12 -60 14 -1 2 6 26 17 53
10 27 22 65 25 85 5 34 7 36 43 35 35 -1 37 1 40 32 3 30 1 33 -17 27 -62 -19
-23 192 41 222 40 20 84 15 116 -12z m159 -178 c6 -73 -17 -209 -47 -267 -22
-43 -114 -94 -198 -110 -64 -12 -71 -15 -82 -45 -6 -17 -19 -24 -46 -27 -35
-4 -36 -4 -16 10 12 8 22 18 22 23 0 5 -154 9 -345 9 -190 0 -345 4 -345 8 0
5 107 9 238 8 317 0 541 23 623 64 48 25 106 91 138 159 23 50 26 68 26 168 0
97 2 109 13 87 7 -13 15 -53 19 -87z m-634 -256 c5 -22 55 -24 81 -2 10 9 16
10 16 2 0 -6 -4 -11 -10 -11 -24 0 -7 -20 18 -21 22 0 20 -3 -18 -15 -62 -21
-376 -22 -439 -1 -27 8 -40 17 -32 21 6 4 27 2 47 -4 37 -12 59 -6 34 10 -15
9 -11 12 36 25 7 2 21 -3 33 -11 11 -8 21 -13 21 -10 0 3 0 9 0 14 0 4 44 10
97 13 54 3 101 6 104 7 4 1 9 -7 12 -17z m177 -177 c0 -3 -21 -15 -47 -27 -44
-20 -64 -22 -233 -22 -169 0 -189 2 -232 22 -27 12 -48 24 -48 27 0 3 126 6
280 6 154 0 280 -3 280 -6z"/>
</g>
</svg>
